<svg width="189" height="25" viewBox="0 0 189 25" fill="none" xmlns="http://www.w3.org/2000/svg">
<path d="M9.275 10.29L20.16 24.43H16.275L7.245 12.53H7.07L3.185 16.555V24.43H-4.17233e-06V-7.80821e-06H3.185V12.495H3.29L15.085 -7.80821e-06H19.25L9.275 10.29ZM38.4973 15.505V16.625H24.9873C25.1739 18.2583 25.7806 19.53 26.8073 20.44C27.8339 21.35 29.3856 21.805 31.4623 21.805C33.5623 21.805 35.4989 21.2217 37.2723 20.055H37.4473V23.135C35.4873 24.2317 33.1773 24.78 30.5173 24.78C27.8806 24.78 25.7573 23.975 24.1473 22.365C22.5606 20.7317 21.7673 18.5383 21.7673 15.785C21.7673 13.0083 22.4789 10.7217 23.9023 8.92499C25.3256 7.12832 27.4023 6.22999 30.1323 6.22999C32.8623 6.22999 34.9389 7.12832 36.3623 8.92499C37.7856 10.7217 38.4973 12.915 38.4973 15.505ZM24.9873 14.035H35.3123C35.2189 12.355 34.6473 11.0833 33.5973 10.22C32.5706 9.35666 31.4156 8.92499 30.1323 8.92499C28.8489 8.92499 27.6939 9.35666 26.6673 10.22C25.6406 11.0833 25.0806 12.355 24.9873 14.035ZM43.0932 7.55999C45.1232 6.67332 47.2932 6.22999 49.6032 6.22999C51.9365 6.22999 53.7215 6.90666 54.9582 8.25999C56.1949 9.61333 56.8132 11.235 56.8132 13.125V24.43H54.0132L53.6282 22.19H53.5232C51.8432 23.9167 49.6849 24.78 47.0482 24.78C45.4615 24.78 44.1082 24.3017 42.9882 23.345C41.8915 22.3883 41.3432 21.0817 41.3432 19.425C41.3432 17.7683 42.0199 16.4267 43.3732 15.4C44.7499 14.3733 46.7565 13.86 49.3932 13.86H53.6282V13.58C53.6282 12.04 53.2432 10.9317 52.4732 10.255C51.7265 9.57833 50.4199 9.23999 48.5532 9.23999C46.6865 9.23999 44.9365 9.63666 43.3032 10.43H43.0932V7.55999ZM53.6282 19.355V16.415H49.8132C46.2899 16.415 44.5282 17.3483 44.5282 19.215C44.5282 21.0583 45.7649 21.98 48.2382 21.98C49.2649 21.98 50.2565 21.735 51.2132 21.245C52.1699 20.7317 52.9749 20.1017 53.6282 19.355ZM75.1073 6.57999V9.55499L64.9923 21.35V21.455H75.1073V24.43H61.0373V21.49L71.2923 9.69499V9.55499H61.3523V6.57999H75.1073ZM78.5731 15.505C78.5731 12.7283 79.3897 10.4883 81.0231 8.78499C82.6564 7.08166 84.8147 6.22999 87.4981 6.22999C90.2047 6.22999 92.3747 7.08166 94.0081 8.78499C95.6647 10.4883 96.4931 12.7283 96.4931 15.505C96.4931 18.2817 95.6647 20.5217 94.0081 22.225C92.3747 23.9283 90.2047 24.78 87.4981 24.78C84.8147 24.78 82.6564 23.9283 81.0231 22.225C79.3897 20.5217 78.5731 18.2817 78.5731 15.505ZM83.4731 20.3C84.6397 21.35 85.9931 21.875 87.5331 21.875C89.0731 21.875 90.4147 21.35 91.5581 20.3C92.7247 19.2267 93.3081 17.6283 93.3081 15.505C93.3081 13.3583 92.7247 11.76 91.5581 10.71C90.4147 9.65999 89.0731 9.13499 87.5331 9.13499C85.9931 9.13499 84.6397 9.65999 83.4731 10.71C82.3297 11.76 81.7581 13.3583 81.7581 15.505C81.7581 17.6283 82.3297 19.2267 83.4731 20.3ZM119.712 -7.80821e-06H122.897V24.43H118.977L104.837 4.30499H104.767V24.43H101.582V-7.80821e-06H105.502L119.607 20.09H119.712V-7.80821e-06ZM132.972 17.4085H128.558L128.539 16.8812H132.171C133.031 16.8812 133.75 16.7705 134.33 16.5491C134.916 16.3278 135.355 15.9892 135.648 15.5335C135.941 15.0778 136.087 14.5049 136.087 13.8148C136.087 13.1312 135.931 12.5615 135.619 12.1058C135.313 11.65 134.854 11.3082 134.242 11.0804C133.636 10.8525 132.881 10.7386 131.976 10.7386H128.763V24.43H128.236V10.2112H131.976C132.692 10.2112 133.337 10.2829 133.91 10.4261C134.483 10.5693 134.971 10.7907 135.375 11.0901C135.778 11.3896 136.087 11.7705 136.302 12.2327C136.517 12.6885 136.625 13.2288 136.625 13.8538C136.625 14.4398 136.514 14.9671 136.292 15.4359C136.078 15.9046 135.762 16.2855 135.345 16.5784C134.929 16.8714 134.414 17.0504 133.802 17.1155L132.972 17.4085ZM132.875 24.43H128.539L128.705 23.9026H132.875C133.675 23.9026 134.362 23.7692 134.935 23.5023C135.515 23.2353 135.96 22.8512 136.273 22.3499C136.585 21.8421 136.742 21.2366 136.742 20.5335C136.742 19.9866 136.602 19.4756 136.322 19.0003C136.048 18.525 135.632 18.1409 135.072 17.848C134.512 17.555 133.812 17.4085 132.972 17.4085H130.667L130.687 16.8812H134.056L134.095 17.0667C134.694 17.1383 135.231 17.3369 135.707 17.6624C136.188 17.9879 136.569 18.4013 136.849 18.9026C137.129 19.3974 137.269 19.9345 137.269 20.514C137.269 21.3538 137.08 22.0667 136.703 22.6526C136.332 23.2321 135.817 23.6748 135.16 23.9808C134.502 24.2803 133.74 24.43 132.875 24.43ZM150.375 16.2562V18.3851C150.375 19.3095 150.248 20.1559 149.994 20.9241C149.746 21.6859 149.388 22.3434 148.919 22.8968C148.457 23.4502 147.897 23.8766 147.24 24.1761C146.582 24.4756 145.843 24.6253 145.023 24.6253C144.209 24.6253 143.47 24.4756 142.806 24.1761C142.149 23.8766 141.582 23.4502 141.107 22.8968C140.638 22.3434 140.277 21.6859 140.023 20.9241C139.776 20.1559 139.652 19.3095 139.652 18.3851V16.2562C139.652 15.3252 139.776 14.4788 140.023 13.7171C140.277 12.9554 140.638 12.2978 141.107 11.7444C141.576 11.1911 142.139 10.7646 142.796 10.4651C143.454 10.1657 144.19 10.0159 145.003 10.0159C145.824 10.0159 146.563 10.1657 147.22 10.4651C147.878 10.7646 148.441 11.1911 148.91 11.7444C149.385 12.2978 149.746 12.9554 149.994 13.7171C150.248 14.4788 150.375 15.3252 150.375 16.2562ZM149.847 18.3851V16.2366C149.847 15.4033 149.74 14.6416 149.525 13.9515C149.31 13.2549 148.994 12.6526 148.578 12.1448C148.161 11.637 147.653 11.2431 147.054 10.9632C146.455 10.6832 145.772 10.5433 145.003 10.5433C144.242 10.5433 143.561 10.6832 142.962 10.9632C142.37 11.2431 141.865 11.637 141.449 12.1448C141.039 12.6526 140.726 13.2549 140.511 13.9515C140.296 14.6416 140.189 15.4033 140.189 16.2366V18.3851C140.189 19.2249 140.296 19.9931 140.511 20.6898C140.733 21.3864 141.048 21.9886 141.459 22.4964C141.875 23.0042 142.383 23.3981 142.982 23.678C143.581 23.958 144.261 24.098 145.023 24.098C145.791 24.098 146.472 23.958 147.064 23.678C147.663 23.3981 148.167 23.0042 148.578 22.4964C148.994 21.9886 149.31 21.3864 149.525 20.6898C149.74 19.9931 149.847 19.2249 149.847 18.3851ZM163.695 16.2562V18.3851C163.695 19.3095 163.568 20.1559 163.314 20.9241C163.067 21.6859 162.709 22.3434 162.24 22.8968C161.778 23.4502 161.218 23.8766 160.56 24.1761C159.903 24.4756 159.164 24.6253 158.343 24.6253C157.529 24.6253 156.791 24.4756 156.126 24.1761C155.469 23.8766 154.903 23.4502 154.427 22.8968C153.959 22.3434 153.597 21.6859 153.343 20.9241C153.096 20.1559 152.972 19.3095 152.972 18.3851V16.2562C152.972 15.3252 153.096 14.4788 153.343 13.7171C153.597 12.9554 153.959 12.2978 154.427 11.7444C154.896 11.1911 155.459 10.7646 156.117 10.4651C156.774 10.1657 157.51 10.0159 158.324 10.0159C159.144 10.0159 159.883 10.1657 160.541 10.4651C161.198 10.7646 161.761 11.1911 162.23 11.7444C162.705 12.2978 163.067 12.9554 163.314 13.7171C163.568 14.4788 163.695 15.3252 163.695 16.2562ZM163.167 18.3851V16.2366C163.167 15.4033 163.06 14.6416 162.845 13.9515C162.63 13.2549 162.315 12.6526 161.898 12.1448C161.481 11.637 160.973 11.2431 160.375 10.9632C159.776 10.6832 159.092 10.5433 158.324 10.5433C157.562 10.5433 156.882 10.6832 156.283 10.9632C155.69 11.2431 155.186 11.637 154.769 12.1448C154.359 12.6526 154.046 13.2549 153.832 13.9515C153.617 14.6416 153.509 15.4033 153.509 16.2366V18.3851C153.509 19.2249 153.617 19.9931 153.832 20.6898C154.053 21.3864 154.369 21.9886 154.779 22.4964C155.195 23.0042 155.703 23.3981 156.302 23.678C156.901 23.958 157.582 24.098 158.343 24.098C159.112 24.098 159.792 23.958 160.384 23.678C160.983 23.3981 161.488 23.0042 161.898 22.4964C162.315 21.9886 162.63 21.3864 162.845 20.6898C163.06 19.9931 163.167 19.2249 163.167 18.3851ZM167.474 10.2112V24.43H166.947V10.2112H167.474ZM176.478 10.2112L170.121 16.6077L167.259 19.2444L167.337 18.5609L169.798 16.1585L175.716 10.2112H176.478ZM176.283 24.43L169.584 16.764L169.906 16.305L176.966 24.43H176.283ZM188.158 21.0218C188.158 20.5726 188.08 20.1722 187.923 19.8206C187.767 19.4691 187.516 19.1533 187.171 18.8734C186.826 18.5934 186.374 18.3362 185.814 18.1019C185.261 17.8675 184.58 17.6396 183.773 17.4183C183.05 17.223 182.399 17.0146 181.82 16.7933C181.24 16.5654 180.746 16.305 180.335 16.012C179.932 15.7191 179.623 15.3707 179.408 14.9671C179.193 14.5569 179.085 14.0654 179.085 13.4925C179.085 12.9521 179.203 12.4671 179.437 12.0374C179.678 11.6077 180.01 11.2431 180.433 10.9437C180.863 10.6442 181.364 10.4163 181.937 10.2601C182.51 10.0973 183.132 10.0159 183.802 10.0159C184.727 10.0159 185.544 10.1917 186.253 10.5433C186.963 10.8948 187.52 11.3864 187.923 12.0179C188.334 12.6429 188.539 13.3753 188.539 14.2151H188.011C188.011 13.512 187.835 12.8838 187.484 12.3304C187.132 11.777 186.641 11.3408 186.009 11.0218C185.384 10.7028 184.649 10.5433 183.802 10.5433C182.91 10.5433 182.152 10.68 181.527 10.9534C180.902 11.2269 180.427 11.5882 180.101 12.0374C179.776 12.4801 179.613 12.9586 179.613 13.473C179.613 13.8506 179.678 14.2021 179.808 14.5276C179.945 14.8532 180.173 15.1559 180.492 15.4359C180.811 15.7093 181.25 15.9697 181.81 16.2171C182.37 16.458 183.073 16.6891 183.919 16.9105C184.623 17.0928 185.264 17.2978 185.843 17.5257C186.429 17.7536 186.934 18.0237 187.357 18.3362C187.787 18.6487 188.115 19.0231 188.343 19.4593C188.578 19.889 188.695 20.4033 188.695 21.0023C188.695 21.5817 188.568 22.096 188.314 22.5452C188.067 22.9944 187.722 23.3753 187.279 23.6878C186.836 23.9938 186.322 24.2282 185.736 24.3909C185.156 24.5472 184.535 24.6253 183.871 24.6253C183.265 24.6253 182.653 24.5537 182.035 24.4105C181.416 24.2672 180.85 24.0361 180.335 23.7171C179.821 23.3916 179.408 22.9586 179.095 22.4183C178.783 21.8779 178.626 21.2106 178.626 20.4163H179.154C179.154 21.126 179.3 21.7184 179.593 22.1937C179.886 22.6689 180.267 23.0465 180.736 23.3265C181.211 23.5999 181.722 23.7985 182.269 23.9222C182.822 24.0394 183.356 24.098 183.871 24.098C184.704 24.098 185.443 23.9678 186.087 23.7073C186.732 23.4469 187.237 23.0856 187.601 22.6234C187.972 22.1611 188.158 21.6273 188.158 21.0218Z" fill="white"/>
</svg>
